{"accessors":{"accessor_0":{"bufferView":"bufferView_0","count":72000,"byteOffset":0,"componentType":5126,"type":"VEC3","min":[167.82418823242188,67.53791809082031,10.643779754638672],"max":[17.514999389648438,-83.02522277832031,-139.79481506347656]},"accessor_1":{"bufferView":"bufferView_0","count":72000,"byteOffset":864000,"componentType":5126,"type":"VEC3","min":[0.9999889135360718,0.9999660849571228,0.9999737739562988],"max":[-0.9999889135360718,-0.9999660849571228,-0.9999737739562988]},"accessor_2":{"bufferView":"bufferView_0","count":72000,"byteOffset":1728000,"componentType":5126,"type":"VEC2","min":[1,1],"max":[0,0]}},"asset":{"generator":"Archilogic 180612-135140-428fa36","version":"1.0.2"},"extensionsUsed":["KHR_materials_common"],"buffers":{"buffer_0":{"byteLength":2304000,"type":"arraybuffer","uri":"buffer_0.bin"}},"bufferViews":{"bufferView_0":{"buffer":"buffer_0","byteLength":2304000,"byteOffset":0,"target":34962}},"materials":{"Mat":{"name":"Mat","extensions":{"AL_materials":{},"KHR_materials_common":{"technique":"PHONG","values":{"diffuse":"texture_0","specular":"texture_0","shininess":[5],"transparent":true}}}}},"meshes":{"mesh_0":{"primitives":[{"attributes":{"POSITION":"accessor_0","NORMAL":"accessor_1","TEXCOORD_0":"accessor_2"},"material":"Mat"}]}},"nodes":{"node_0":{"children":[],"translation":[-6.080855307214579,0,0],"meshes":["mesh_0"]}},"scenes":{"defaultScene":{"nodes":["node_0"]}},"scene":"defaultScene","images":{"file_0":{"name":"file_0","uri":"fffa6233.source.jpg"}},"textures":{"texture_0":{"sampler":"sampler_0","source":"file_0"}},"samplers":{"sampler_0":{}}}